<?xml version="1.0" standalone="no"?>
<!DOCTYPE svg PUBLIC "-//W3C//DTD SVG 20010904//EN"
 "http://www.w3.org/TR/2001/REC-SVG-20010904/DTD/svg10.dtd">
<svg version="1.0" xmlns="http://www.w3.org/2000/svg"
 width="2382.000000pt" height="2382.000000pt" viewBox="0 0 2382.000000 2382.000000"
 preserveAspectRatio="xMidYMid meet">
<metadata>
Created by potrace 1.14, written by Peter Selinger 2001-2017
</metadata>
<g transform="translate(0.000000,2382.000000) scale(0.100000,-0.100000)"
fill="#000000" stroke="none">
<path d="M9458 21445 c-1 -1 -55 -5 -120 -9 -966 -51 -1956 -413 -2758 -1009
-298 -221 -637 -539 -855 -802 -27 -33 -52 -62 -56 -65 -3 -3 -55 -70 -115
-150 -152 -200 -264 -371 -407 -620 -43 -76 -187 -371 -227 -465 -23 -55 -45
-103 -48 -107 -7 -7 -48 31 -477 447 -132 128 -265 256 -295 285 -30 29 -162
157 -293 284 -132 127 -276 266 -320 310 -238 229 -317 307 -368 366 -262 303
-571 522 -884 629 -49 16 -105 33 -124 36 -19 3 -37 8 -41 10 -4 2 -25 7 -46
10 -21 2 -50 7 -64 10 -14 3 -84 7 -156 9 -126 3 -259 -9 -354 -33 -25 -7 -54
-14 -65 -16 -69 -15 -251 -93 -360 -153 -272 -150 -603 -453 -772 -707 -118
-178 -208 -400 -229 -564 -3 -25 -7 -54 -10 -63 -11 -37 -5 -259 10 -353 49
-321 221 -657 502 -980 86 -99 84 -98 174 -170 85 -69 118 -96 134 -110 6 -6
58 -49 116 -95 121 -97 466 -377 525 -426 36 -29 540 -438 639 -518 21 -17 43
-36 50 -41 6 -6 45 -38 86 -70 41 -33 77 -62 80 -65 3 -4 39 -33 80 -65 41
-33 77 -62 80 -65 3 -3 52 -44 110 -90 58 -46 107 -87 110 -90 3 -3 25 -21 50
-40 25 -19 47 -37 50 -40 3 -3 75 -62 160 -130 150 -121 191 -154 214 -175 6
-5 45 -37 86 -69 41 -33 77 -63 80 -66 3 -3 25 -21 50 -40 25 -19 47 -37 50
-40 3 -4 113 -93 245 -200 238 -192 483 -391 560 -455 22 -18 119 -96 215
-175 96 -78 192 -156 214 -173 21 -18 99 -81 174 -142 l135 -110 66 -130 c255
-501 552 -909 960 -1315 268 -268 526 -477 838 -680 76 -49 143 -94 149 -99 7
-5 16 -36 22 -68 6 -32 13 -67 16 -78 9 -39 38 -170 42 -195 3 -14 10 -43 16
-65 5 -22 12 -47 13 -55 7 -34 116 -457 125 -485 6 -16 24 -77 40 -135 56
-192 72 -244 142 -455 39 -115 101 -293 139 -394 38 -101 69 -188 69 -193 0
-4 -11 -31 -24 -58 -65 -135 -83 -279 -53 -433 7 -33 142 -437 161 -482 8 -16
39 -95 71 -175 32 -80 61 -149 66 -155 5 -5 9 -15 9 -22 0 -19 230 -487 241
-491 5 -2 9 -8 9 -14 0 -36 279 -472 378 -592 144 -175 293 -296 481 -389 87
-44 278 -110 346 -121 17 -2 64 -11 105 -20 83 -17 99 -20 215 -36 75 -11 87
-16 153 -66 40 -30 76 -54 81 -54 21 0 65 -68 112 -175 103 -235 242 -494 377
-705 53 -82 231 -324 268 -365 11 -11 37 -43 58 -70 77 -96 382 -392 511 -494
228 -181 496 -345 695 -426 36 -14 74 -30 85 -35 55 -26 352 -111 438 -125 18
-3 39 -8 47 -10 20 -6 225 -36 275 -40 22 -2 69 -6 105 -10 98 -9 203 -14 325
-14 l110 -1 39 -107 c73 -202 269 -651 316 -723 5 -8 26 -46 46 -85 55 -105
176 -293 254 -394 110 -142 235 -261 355 -339 76 -49 258 -113 365 -129 63 -9
320 -10 365 -1 17 4 53 11 80 17 129 26 282 87 395 159 262 166 440 432 501
747 14 77 18 338 6 425 -12 90 -27 169 -47 255 -14 58 -18 80 -25 115 -3 14
-23 88 -45 165 -22 77 -40 140 -40 141 0 1 37 -7 83 -17 45 -9 106 -20 136
-24 30 -4 61 -8 70 -10 9 -1 39 -6 66 -9 28 -3 66 -8 85 -11 60 -8 250 -17
377 -19 67 0 123 -3 125 -6 2 -3 12 -30 22 -60 105 -308 335 -800 479 -1024
165 -255 320 -432 468 -531 112 -75 253 -131 374 -149 22 -4 63 -10 90 -14 28
-4 95 -6 149 -5 447 11 838 248 1025 618 43 86 87 209 97 271 3 22 8 42 10 46
6 10 18 177 18 248 -3 331 -168 933 -416 1515 -59 138 -204 436 -246 505 -12
19 -25 42 -29 50 -10 23 -128 202 -152 230 -11 14 -24 30 -28 35 -8 10 -127
148 -148 171 -5 6 -30 35 -55 64 -25 30 -73 86 -107 126 -35 40 -63 76 -63 81
0 4 33 23 73 41 83 38 149 76 316 184 233 151 501 265 685 293 21 3 41 7 45 9
3 2 40 7 81 11 41 4 84 9 95 11 11 2 83 6 160 9 233 9 343 16 447 31 21 3 50
7 65 9 154 21 376 91 532 167 58 29 108 54 111 57 3 3 17 12 32 20 73 38 233
174 413 352 110 109 218 212 240 230 142 111 327 176 585 206 84 10 503 10
599 0 172 -18 424 -56 521 -77 25 -6 81 -12 125 -13 71 -2 84 1 115 23 50 35
53 38 87 110 101 210 173 457 200 686 4 38 8 152 7 254 0 162 -4 225 -20 305
-2 11 -6 31 -9 45 -2 14 -14 61 -25 105 -12 44 -23 87 -25 95 -8 36 -78 208
-115 281 -88 175 -214 350 -364 506 -89 93 -106 105 -141 110 -22 2 -101 13
-175 23 -182 26 -211 30 -240 35 -14 3 -41 7 -60 10 -19 3 -42 8 -50 10 -8 2
-33 7 -55 10 -23 3 -52 7 -65 10 -30 6 -135 25 -170 31 -14 3 -32 7 -40 9 -8
2 -31 7 -50 10 -19 3 -75 15 -125 25 -49 11 -101 21 -115 24 -14 3 -54 11 -90
19 -36 8 -108 25 -160 36 -144 32 -217 50 -304 72 -43 11 -86 22 -95 24 -26 5
-303 75 -336 85 -16 5 -48 13 -70 19 -22 6 -137 38 -255 72 -118 33 -222 62
-230 64 -8 2 -28 8 -45 14 -16 5 -70 21 -120 35 -295 87 -1219 394 -1310 436
-11 5 -87 34 -170 64 -202 74 -566 215 -810 315 -204 84 -626 261 -680 286
-16 7 -84 37 -150 65 -66 29 -148 65 -183 81 -35 16 -65 29 -67 29 -2 0 -36
15 -77 34 -40 19 -138 63 -218 99 -80 36 -179 81 -220 100 -41 19 -109 51
-150 70 -41 19 -115 54 -165 77 -49 23 -117 55 -150 70 -240 111 -1153 565
-1170 581 -5 6 -5 9 2 9 18 0 114 80 190 158 132 136 227 272 317 457 123 252
181 460 221 785 6 46 7 368 1 400 -2 14 -7 52 -11 85 -4 33 -13 92 -22 130 -8
39 -16 79 -18 89 -9 40 -49 155 -90 256 -24 58 -55 139 -70 180 -78 215 -212
434 -359 584 l-94 96 -6 68 c-107 1071 -539 2077 -1241 2887 -141 163 -390
408 -554 545 -29 25 -59 50 -65 55 -34 32 -207 162 -320 242 -258 182 -634
391 -921 513 -55 24 -113 48 -130 55 -281 120 -818 264 -1155 310 -135 18
-258 32 -370 41 -76 6 -576 14 -582 9z"/>
</g>
</svg>
